<?xml version="1.0" encoding="UTF-8"?>
<svg id="Layer_2" data-name="Layer 2" xmlns="http://www.w3.org/2000/svg" viewBox="0 0 56.61 33.91">
  <defs>
    <style>
      .cls-1 {
        fill: #fff;
      }
    </style>
  </defs>
  <g id="Calque_1" data-name="Calque 1">
    <g>
      <path class="cls-1" d="M0,.22h6.45v21.14h.72V.22h6.45v33.68h-6.45v-6.72h-.72v6.72H0V.22Z"/>
      <path class="cls-1" d="M14.33,27.91h6.81c.24,0,.36-.21.36-.63v-.09h-7.17V.22h6.45v21.14h.72V.22h6.45v27.1c0,2-.59,3.6-1.77,4.79-1.18,1.19-2.82,1.79-4.9,1.79h-6.94v-6Z"/>
      <path class="cls-1" d="M28.67.22h13.62v24.82c0,2-.59,3.6-1.77,4.79-1.18,1.19-2.82,1.79-4.9,1.79h-.49v2.28h-6.45V.22ZM35.72,25.6c.07-.16.11-.35.11-.56V6.05h-.72v19.8h.31c.12,0,.22-.08.29-.25Z"/>
      <path class="cls-1" d="M43,.76l13.62-.76v2.73h-13.62V.76ZM43,3.45h13.62v17.2h-6.45v-11.38h-.72v12.09h7.17v5.82h-7.17v.72h7.17v6h-13.62V3.45Z"/>
    </g>
  </g>
</svg>