<?xml version="1.0" encoding="UTF-8"?>
<svg id="Layer_2" data-name="Layer 2" xmlns="http://www.w3.org/2000/svg" viewBox="0 0 89.26 89.26">
  <defs>
    <style>
      .cls-1 {
        fill: #fff;
      }
    </style>
  </defs>
  <g id="Calque_1" data-name="Calque 1">
    <circle class="cls-1" cx="44.63" cy="44.63" r="44.63"/>
    <g>
      <path d="M16.32,30.41h6.45v21.14h.72v-21.14h6.45v33.68h-6.45v-6.72h-.72v6.72h-6.45V30.41Z"/>
      <path d="M30.66,58.09h6.81c.24,0,.36-.21.36-.63v-.09h-7.17v-26.97h6.45v21.14h.72v-21.14h6.45v27.1c0,2-.59,3.6-1.77,4.79-1.18,1.19-2.82,1.79-4.9,1.79h-6.94v-6Z"/>
      <path d="M44.99,30.41h13.62v24.82c0,2-.59,3.6-1.77,4.79-1.18,1.19-2.82,1.79-4.9,1.79h-.49v2.28h-6.45V30.41ZM52.04,55.78c.07-.16.11-.35.11-.56v-18.99h-.72v19.8h.31c.12,0,.22-.08.29-.25Z"/>
      <path d="M59.32,30.94l13.62-.76v2.73h-13.62v-1.97ZM59.32,33.63h13.62v17.2h-6.45v-11.38h-.72v12.09h7.17v5.82h-7.17v.72h7.17v6h-13.62v-30.46Z"/>
    </g>
  </g>
</svg>